<!--?xml version="1.0" standalone="no"?-->
              <svg id="sw-js-blob-svg" viewBox="0 0 100 100" xmlns="http://www.w3.org/2000/svg" version="1.1">
                    <defs> 
                        <linearGradient id="sw-gradient" x1="0" x2="1" y1="1" y2="0">
                            <stop id="stop1" stop-color="rgba(156, 247, 172, 1)" offset="0%"></stop>
                            <stop id="stop2" stop-color="rgba(156, 247, 172, 1)" offset="100%"></stop>
                        </linearGradient>
                    </defs>
                <path fill="url(#sw-gradient)" d="M26.6,-35.3C34,-31.3,39.1,-22.8,41.1,-14C43,-5.2,41.7,4,37.8,11.2C33.9,18.4,27.5,23.7,20.7,28.4C14,33.1,7,37.3,0.1,37.2C-6.8,37,-13.7,32.6,-19.9,27.7C-26.1,22.8,-31.6,17.5,-34.8,10.6C-38,3.7,-38.9,-4.6,-36.1,-11.2C-33.2,-17.9,-26.7,-22.8,-20.1,-27.1C-13.4,-31.4,-6.7,-35,1.5,-37C9.6,-39,19.2,-39.3,26.6,-35.3Z" width="100%" height="100%" transform="translate(50 50)" stroke-width="0" style="transition: all 0.3s ease 0s;"></path>
              </svg>